<svg xmlns="http://www.w3.org/2000/svg" xmlns:xlink="http://www.w3.org/1999/xlink" x="0px" y="0px"
	 viewBox="0 0 500 450">
<style>
	.st0{fill:#800000;}
</style>
<g>
	<path class="st0" d="M352.8,0c-16.2,30-32.6,60.1-48.9,90.1c-0.6,1.1-1.1,2.3-1.9,4.2c16.8-4.5,32.5-8.9,48.3-12.8
		c4.3-1.1,6.3-3,8-6.2c6.8-13.1,13.9-26.1,20.7-39.3c1.4-2.7,3.2-3.6,6.6-3.5c12.5,0.2,25,0.1,37.5,0.1c4.2,0,8.3,0,13.4,0
		c-61.7,112-123,223.3-184.4,334.8c-0.7-0.7-1.1-0.9-1.3-1.2c-7.8-13.9-15.7-27.9-23.3-41.9c-0.8-1.4-0.4-3.8,0.4-5.3
		c13.6-25.8,27.4-51.5,41.3-77.2c1.5-2.8,1.9-5.3,0.7-8.3c-2.5-6.3-4.5-12.7-6.7-19c-3.2-9.2-6.3-18.4-9.7-28.4
		c-17,31.8-33.7,62.8-50.6,94.5c-46.5-82.9-92.5-165-138.9-247.8c2.9,0,4.5,0,6,0c14.8,0,29.5,0.2,44.3,0c3.5,0,5.2,0.9,6.6,3.5
		c9.4,17.4,18.9,34.8,28.5,52.1c1,1.7,3.2,3.5,5.3,4.1c13.3,3.9,26.8,7.5,40.2,11.3c3.2,0.9,6.3,1.7,9.9,2.6c-0.3-1-0.4-1.4-0.6-1.8
		C185,69.8,165.9,34.9,146.9,0H0c84.1,150.1,167.8,299.6,252.1,450C335.1,299.3,417.5,149.8,500,0H352.8z"/>
	<polygon class="st0" points="166.6,116.8 220.8,133.7 232.9,155.9 213.8,208.7 	"/>
	<polygon class="st0" points="338.1,116.8 284,133.7 271.8,155.9 291,208.7 	"/>
</g>
</svg>
